/* XPM */
static char *Screenshot_from_2024_05_19_16_54_151716130467[] = {
/* columns rows colors chars-per-pixel */
"75 68 256 2 ",
"   c #0D0B05",
".  c #120E07",
"X  c #19150B",
"o  c #1B150B",
"O  c #1D1A13",
"+  c #1B1815",
"@  c #261A0B",
"#  c #231B0D",
"$  c #241C12",
"%  c #291E12",
"&  c #231E1B",
"*  c #281D18",
"=  c #361E11",
"-  c #31230E",
";  c #2C2214",
":  c #25221B",
">  c #292619",
",  c #2C241B",
"<  c #322515",
"1  c #342916",
"2  c #3C2817",
"3  c #32261A",
"4  c #342A1C",
"5  c #3A2D1C",
"6  c #36321E",
"7  c #3D311D",
"8  c #2B2621",
"9  c #292725",
"0  c #2D2A23",
"q  c #332B27",
"w  c #322C24",
"e  c #3A2E22",
"r  c #2E312E",
"t  c #333124",
"y  c #3D3223",
"u  c #3B3923",
"i  c #34322B",
"p  c #3B342A",
"a  c #3C3A2C",
"s  c #333432",
"d  c #3C3933",
"f  c #43331D",
"g  c #48341A",
"h  c #4A331C",
"j  c #4F2926",
"k  c #423424",
"l  c #4A3425",
"z  c #443926",
"x  c #4B3B25",
"c  c #43362A",
"v  c #443A2B",
"b  c #4B3D2B",
"n  c #573A28",
"m  c #523E2B",
"M  c #4A3D31",
"N  c #553D33",
"B  c #673F32",
"V  c #3F4032",
"C  c #46442C",
"Z  c #4C412D",
"A  c #54432D",
"S  c #58452A",
"D  c #474735",
"F  c #4C4333",
"G  c #544432",
"H  c #5B4533",
"J  c #554936",
"K  c #5C4A33",
"L  c #5C4C3B",
"P  c #4C5238",
"I  c #57563A",
"U  c #634D35",
"Y  c #694830",
"T  c #684937",
"R  c #634C3A",
"E  c #64523B",
"W  c #695638",
"Q  c #6B543C",
"!  c #73573D",
"~  c #735A3E",
"^  c #5D633E",
"/  c #67683D",
"(  c #5C4E44",
")  c #595943",
"_  c #6A4C42",
"`  c #665744",
"'  c #6C5442",
"]  c #6C5943",
"[  c #735B43",
"{  c #765847",
"}  c #7B5E44",
"|  c #74554D",
" . c #735C4A",
".. c #5E6344",
"X. c #646543",
"o. c #676847",
"O. c #6C6D4C",
"+. c #7D6344",
"@. c #756749",
"#. c #7C634A",
"$. c #6A7646",
"%. c #6B744B",
"&. c #6E7A4B",
"*. c #73744D",
"=. c #737C4D",
"-. c #79784B",
";. c #6A6952",
":. c #7B6755",
">. c #6E7352",
",. c #6D7854",
"<. c #757C53",
"1. c #7A7D54",
"2. c #777858",
"3. c #7A7C62",
"4. c #895946",
"5. c #83644B",
"6. c #87694C",
"7. c #8F6D4E",
"8. c #846B53",
"9. c #8B6C53",
"0. c #856958",
"q. c #936C58",
"w. c #877558",
"e. c #977558",
"r. c #A46B55",
"t. c #A37A5D",
"y. c #896E66",
"u. c #8C7563",
"i. c #937A64",
"p. c #997A66",
"a. c #A77B69",
"s. c #B47468",
"d. c #73803D",
"f. c #78844C",
"g. c #768254",
"h. c #7B8354",
"j. c #7D8955",
"k. c #778359",
"l. c #7C845B",
"z. c #7E8A5C",
"x. c #7D8561",
"c. c #7D8A62",
"v. c #7F886A",
"b. c #828554",
"n. c #838B54",
"m. c #898953",
"M. c #82845C",
"N. c #838B5C",
"B. c #898B5B",
"V. c #8A9557",
"C. c #86925B",
"Z. c #8B935D",
"A. c #93985B",
"S. c #99A55C",
"D. c #848C63",
"F. c #858966",
"G. c #8A8C64",
"H. c #968765",
"J. c #9C836B",
"K. c #859164",
"L. c #8B9463",
"P. c #879860",
"I. c #8D9A64",
"U. c #869269",
"Y. c #8B946B",
"T. c #8D996D",
"R. c #929665",
"E. c #939B64",
"W. c #939C6C",
"Q. c #98986A",
"!. c #928774",
"~. c #8B9573",
"^. c #8B9876",
"/. c #8D9974",
"(. c #939D73",
"). c #999A76",
"_. c #949D7A",
"`. c #A6866B",
"'. c #AF8C6A",
"]. c #A78874",
"[. c #B68B76",
"{. c #AA9579",
"}. c #B69679",
"|. c #BC9C7C",
" X c #8FA068",
".X c #96A366",
"XX c #95A26B",
"oX c #9CA36C",
"OX c #9CA373",
"+X c #9AA577",
"@X c #9BA47B",
"#X c #A3A56B",
"$X c #A4AB74",
"%X c #A5A876",
"&X c #A3A57B",
"*X c #A5AA7A",
"=X c #A9AD7B",
"-X c #B5AD7E",
";X c #A9B177",
":X c #ADB27C",
">X c #C78D78",
",X c #C2997B",
"<X c #C6A27F",
"1X c #A59D85",
"2X c #BB9C83",
"3X c #9BA585",
"4X c #AAA686",
"5X c #A4AB82",
"6X c #ABAC83",
"7X c #B7A686",
"8X c #B3AB8C",
"9X c #ADB283",
"0X c #AAB28C",
"qX c #B2B584",
"wX c #B6BA86",
"eX c #B3B48B",
"rX c #B5BA8C",
"tX c #B7AB94",
"yX c #AEB093",
"uX c #B7B794",
"iX c #BABC93",
"pX c #B9BAA2",
"aX c #C59A84",
"sX c #CA9D83",
"dX c #D59D83",
"fX c #C5A384",
"gX c #CAA686",
"hX c #CAA48B",
"jX c #CCAC8A",
"kX c #D3A58B",
"lX c #D8A688",
"zX c #D3AC8D",
"xX c #D5B28D",
"cX c #D4AC92",
"vX c #D8AD92",
"bX c #C7B396",
"nX c #D4B393",
"mX c #D9B496",
"MX c #D8B696",
"NX c #DCB49B",
"BX c #DDB99B",
"VX c #E1B79C",
"CX c #DFBAA1",
"ZX c #E3BCA2",
"AX c #E8BFA8",
"SX c #BDC296",
"DX c #BFC5A4",
"FX c #C4C597",
"GX c #C5C5A8",
"HX c #CFCCB2",
"JX c #E8C4AA",
"KX c #EECFB3",
"LX c #E6E1BE",
"PX c #D3CBC6",
"IX c #EAE6D1",
"UX c #F6F1ED",
/* pixels */
"p p p s t t t t t p C C P ) ) >.&.z.D.c.v.x.o...&.k.3X~.,.O.k.c.z.N.K.K.c.<...;.>.<.f.g.k.&.$.) 9 r r s s r 9 0 %.P.C.L.T.<.>.>.2.N.Y.Q.L.XX.X;X;X$X X",
"p s i p i r t q i q r 9 0 9 0 9 9 0 4 > 0 t t a C C ) ) P P ) X.X.o.%.>.*.O.) I / $.&.=.g.f.,.) 9 9 s s s s 9 > o.K.L.I.T.1.X.o.o.>.U.oX$X+X.XI.oX XP.",
"D D D D D V d a p r t 0 t 0 0 0 0 0 0 i 0 u p y y w t u i w C z C C F F J G C F I I I ^ ^ ^ ^ P t 0 s s s s 9 : %.XX5X5X(.K.u.O...;.j. XoX;X+XXXXX XU.",
",...I ) I I P P P P P D D D D C V V v C P P F F F b F u v y z y M z c v u z A Z A J K z Z 7 C v a t i r 9 9 9 > ..U.0X4X/.K.k.>.%.,.f.j.P.+X+X X.X Xc.",
"+XU.N.<.<.&.%.%...%.2.k.%.....$.*.o.o.` I I K I G F C 6 7 7 2 k k k 7 k k y 4 3 c k E z Z x Z k v F J t 9 > : : a t V P P D D C P P ....=.K.L.z.z.V.c.",
"I.XX.XP.E.V.j.f.g.,.c.K.z.k.f.S.S.H.-.O.O.^ S S Z z f g z z 6 x z 7 v 6 y 4 , , * 5 k c z x f v k A J D > 9 : 8 s 0 : : : 9 8 > : : : > > t a a D P P ",
"z.XX+XXXoXXXj.=.&.&.&.g.g.j.j.V.A.m./ O.@.S S g S W S g 7 7 5 7 6 7 v 1 3 ; 4 y : , 3 e Z 7 2 y A K K A y z w w t 9 + & & & & : : : 9 9 9 : 9 , 0 0 > ",
"j.+X*X$X+XS.C.j.g.g.%.g.z.n.n.b.-.-.-.l.W S S Y S n 2 7 1 1 z 7 5 y y < 1 4 c e 3 y 3 5 x 7 x k A S x K 7 v v p t > X + . X + o X o O O O O + : : > : ",
"T.L.+X$X9XoXV.j.z.c.j.z.T.T.j.f.f.-.w./ S S W W S f f 7 z % @ - S b k 7 < k < k y y 5 Z K S A U A x G K A M F M t 9 : $ $ O & O O O O O O + O X O + O ",
"XXI.P.;X9X.Xn.V.j.P.c.c.U./.G.l.w.-.W U W S ~ g 2 - % @ ; 4 7 < E x 5 g < ; G < # * O ; J A S x x A A U K b v C y t 8 0 8 : > : > : : : : : : : $ : & ",
"$XeXHXLXIXIXSXA.j.k.c.c.D.D.C o.S I K x g W S 2 - @ @ 4 ; Z - b ] k x 2 1 J k o $ ; # $ y 4 G A f f 7 S H J b a a d q w 0 q 8 0 0 0 0 0 9 9 3 9 8 8 9 ",
"UXUXUXUXUXUXHXj.g.$.g.N.z.@.M.@.K S S g n Y g - o g x 5 k x 7 b J 7 - 5 < < > 1 y @ O $ $ 4 4 y k < # g x b Z F F p p q 8 q q 0 0 t w w 0 t 0 i t 0 q ",
"UXUXUXUXIXHXA.g.,.$.$.h.G.W / K I S h 1 S g - 1 1 g z - A A y k 5 < ; 7 k < 4 k 5 y y e ; 3 ; # % o @ k - b b A J ( 6 i q q w w 0 w q 0 i 0 w w 0 t w ",
"GXSX:XoXI.j.z.k.k.g.*.-.G.U @.K Z E 7 7 ~ k 1 7 x S f g x 4 y q y @ < k f c k l 5 y k < c e 3 , o $ o f f f b b E !.).` F a t t w w 0 w 3 4 w q q q w ",
"g.g.j.D.K.g.k.z.l.<.w.f.-.6.~ W 7 2 f 1 1 2 - 1 W S 1 - f 7 y t 7 1 @ 7 k 4 y e l k f c k 1 b e @ ; # 4 k 6 z x ` G.bX9XM.O.^ X.,.3.,.%.,.<.2.>.I C D ",
"l.k.z.z.z.g.=.=.z.M.m.b.~ / W S 7 7 K Z k 4 1 W W S Y W 2 y 7 1 3 ; > v 2 w , v S A 3 k 4 % c 2 % p < 5 4 f k A K m @.1.1.%.<.h.N._.^.L.(.5X0XOXI.*.=.",
"k.D.F.G.D.l.g.j.M.w.m.A.9.~ S Z f x S x A K W S A J f S g 1 < # o 4 3 5 b k 5 k f 2 = ; 1 ; 4 y e 4 < k b 6 k k E 7 W C.+XD.D.<.2.c./.K.n.oX*XQ.E.n.b.",
"k.z.Y.).Y.1.1.b.*.R.#XS.W W 1 x S K S k E W Z x k 1 ! 6.x 1 y 4 $ ; w c 2 f b 5 4 3 3 3 > e 3 ; ; 3 < q G 7 k k v @ I L.(.Y.x.2.;.F.T.R.C.T.3XY.N.M.A.",
"FXHXLXIXIXHX=XH.w.S.Z.-.W K 6 z A f - L A < 1 2 1 g ! n 1 - # @ .   % e v b 2 3 % % 3 > $ % ; < % @ k e z k 7 7 1 1 X.j.C.G.U.l.3.u.~.~.K.z.L.L.$.*.m.",
"UXIXUXIXIXLXeXb.'.Z.M.@.6 S z x Z 2 b k z < 4 7 - S 2 b 1 @ o . o @ A % 1 c b b y k < < @ ; ; % % * b f v 4 1 7 z 6 W N.L.G.R.Y.2.>.F.^.(.D.K.(.R.L.Y.",
"wX=X#X_.R.Q.W.-.R.Q.-.*.y L S A m H b H 5 y ; 4 J f ~ U k * @ o # $ o * 4 3 5 7 5 k < @ # % , ; $ 3 5 7 y > 4 ; 7 Z B.M.Z.Z.L.Y.2.;.3.~.@XW.Z.).5X%X5X",
"qXeXuX4X).Y.Y.G.Q.Q.@.W t z L J K m A k G 5 % ; 5 R g - * 3 = o 3 * > % o * 3 4 < % < > # # , 3 $ # ; 7 y 2 3 7 6 A 1.G.L.Z.I.R.F.2.;.2.T..XN.D.(.5XeX",
"HXHXGXuX&X).Y.F.N.F.G.2.4 5 b L G 1 k K G 1 @ @ m f * # 4 k 5 o 3 k 3 3 * 3 l S G 2 < @ # 4 # @ o # ; 2 7 3 4 3 7 O.3X&X*X9X5X+XY.3.;.;.c..XZ.<.(.eXbX",
"5X1X)._._.(.(.F.D.D.w.>.4 y y b Z 7 < ; 4 4 o @ < ; * 3 b L L l N N L N G H E [ T n c k f 3 y y 2 4 4 ; ; @ @ 3 y :.3XCXHXGXiX&XY.F.1.,.x.I.Y.l.F.&X5X",
"F.^.^.U.U.(.(.U.D.G.F.G c c p b k 4 > @ # @ ; ; 3 % 3 b N { [ R _ ` ' :.|  .| 5.5.{ R N c 5 < ; ; > ; * > ; % ; 4 b uXeX=XoXoXA.I.I.T.U.U.~.N.1.H.Y.~.",
"g.L.Y._.yX5XT.G.N.Y.*.b p c c b 4 3 4 4 < @ % 3 , e e k N b k c J _  .w.0. . .{ R ' m 8 q ; % $ ; , o # # $ ; > y z ` F.b.G.XXXXZ.T.W.W.Y.Y.x.*.F.(.).",
"z.l.Y.tXGXpX@XY.Y.G.L z y e 4 e c k < < e f c > q p c c i 8 4 p c ( | 0.0.0._ G v c q 8 3 * & , 1 % o o * $ > ; 3 v 6 *.N.K.L.XX:XGXPXGX).I.Y.F.2.F.G.",
"&XuXyX5X9X;X/.W.XXo.v 3 c 4 c y e k ; 5 H R c c H :.:.| ` M N N J _  .y.p.5.' G b l 5 5 5 l M G G k 3 o $ # @ ; 4 u Z *.M.Q.Y.E.;XHXHXFX$XE.*X_.U.w.G.",
"*XiXeXQ.V.R.R.W.(.X.> > > y q q 3 p e 4 #. ._ ` y.].1X].p.#.| ]  .:.0.0.`.9._ R m m b Z J ` R R R m k > ; $ o $ y z y @.=.R.L.n.V..X#X#X.XQ.).4X).H.Q.",
"A.R.V.n.N.R.R.R.Q.h.4 ; > q & , 3 q q 5 i.u.w.i.J.a.y.:.| N M _ { 0.p.].|.e.{ Y n b e M G A G A U U H z o ; , ; w z 4 *.=.C.I.A.A..X.XoX%X&X%X).).!.!.",
"V.n.n.n.C.W.oXQ.Q.B.z > : , , > > ; ; p i.H.].J.u.0.( r r r ( M G  .`.2XhX'.6.K c k p d + + 0 b x R Q E % $ ; @ 3 C I 2.*.B.OXOX;X;X%X#X&X&XuX8X{.!.{.",
"A.n.n.n.V.R.oXOXA.Z.o.3 > , @ p.H 3 0 b }.J.J.i.0.G y.( 9 8 :._ _ a.].aXkX,Xq.Y n e ( & + O ( c l K [ @., ; > @ J f w.*.-.n.+X*X$XSXrX8X4X1XtXtX4X1X4X",
"A.V.m.b.h.B.Q.Q.R.C.M.4 * 2 [.B e.T p G |.{.J.i.y.u.:.1Xy.0.:.| u.].2XsXcXaXs._ Y b M ( M ( ( N K R } 8.3 * l = h @.B.b.1.n.Q.XXA.:XiXeX8X1XtXtXtX1X2X",
"A.V.m.f.%.<.Q.oXB.b.M.p 8 _ B 0.q.`.k ] |.|.}.}.[.2Xa.p.y.4.0.p.].2XaXcXZXkX'.{ ' H N B _ ' _ Q [ 5.9.w.y e S 3 n ~ n.M.w.n.R.Q.R.%X=X4X8XtXtXtXtXtX1X",
"V.f.n.1.O.1.Q.W.Z.B.M.y * a.B p.hXq.' 0.<XfXfXhXhXhX2XaX2XaX2XaXhXaXcXcXJXlXs.5.} +.! ' | ' ' ] } 6.e.e.N k H n n } F.Z.Z.Z.E.E.#X=X%X4X4XtXbXpXtX8X{.",
"M.b.l.1.O.B.%XOXQ.Z.R.t : a.4.2XvX>Xp.w.<XjXxXMXCXCXCXCXVXcXcXvXcXhXkXNXJXlX`.} 4.7.q.6.8.8.9.9.8.w.e.H.R l l N n #.M.Q.OX$X$X#X%X%X&X6X4XtXpXbXtX4X).",
"M.2.k.>.>.G.%XoXE.Z.b.y & 5.4.>XMXlXa.#.fXjXmXNXZXAXAXCXZXcXvXvXvXlXNXCXJXvX`.q.} 5.e.t.e.q.7.q.e.w.e.i.E c Y B n @.F.R.OX:X;X;X;X$X-XqX4X8XtXtX7X4X{.",
"L.G.1.M.G.R.&X+XQ.W.B.C * k r.dXhX[.4.} }.nXVXJXZXNXNXcXvXNXkXvXvXvXVXAXJXkX'.p.4.6.e.t.t.e.e.q.9.9.e.e.R n Y B n C u.1.C.W.oXoX$X;X:XqX8X=X7X8X8XtX7X",
"F.D.z.M.Y.).@X*X@X(.I.^ z 2 >XdX>Xq.4.[.|.cXNXNXNXCXCXNXNXvXkXvXcXNXVXAXKXdX>X'.e.~ 7.t.t.t.e.7.6.6.9.w. .h n n W k Z %.f.n.f.R.OX;X-XwXqX6X&X8X8X8X8X",
"=.1.1.g.D.&X9X@X@XW.R.M.o.P p.dX>Xr.t.mX|.hXcXcXNXCXZXNXVXvXlXsXkXVXvXZXNXsX[.e.6.5.7.t.t.`.t.e.9.5.5.9.8.j B n K J 2 ^ z.w.$.B.XX%X:X:XqX8X&X8X8X&X4X",
"h.N.z.N.D.).OX@X@XT.z.z.M.2.' lX>Xs.<X<X>X<XlXVXBXBXVXZXmXkXsX,XkXcXaXhX[.a.q.' { } 6.e.t.t.e.e.9.6.+.6.Q j T T c C 7 I h.*.o.N.Q.%X=X-XqXiXeX8XeX6X).",
"L.z.1.z.N.L.L.XX@X/.N.D.2.*.o.H.<X<X>XAX,X<X<XxXBXBXBXNXcXdX,XzXvXa.j :.0.{ ` = H ! 6.q.t.t.e.7.6.5.#.8.h n T L y 5 X.X.2.*./ M.(.#X$X$XqXrX6X6X*X{.~.",
"R.U.=.=.<.F.h.N.T./.c.c.x.>.I b VXs.AXVX,X<XxXMXBXMXmXMXsX,XhXVXAX2X0.y.0._ N b H T 4.7.e.e.7.9.5.+. .9.T p.Q e y u X.w.-.*.O.B.W..X#X#X;XqX=X&XY.G.1.",
"T.K.<.*.<.l.Y.Y.N.K.U.U.x.<.J d ! VXvX<X<X<XxXxXVXmXmXgXkXsXVXZXAXCXa.y.0.:.T R T [ ~ 7.e.e.7.6.5.#.#.6.Q e._ 4 y W 2.*.*.O.-.L.E.#X#X#X;X:XwX6X(.w...",
"K.U.k.%.<.Y._.@XI.T.@X@X(.o.Z 7 p y.VXJXVX<XjXxXNXMXMXzXgXMXZXVXCXcXNXbXy.:.' ' Q ' [ 6.e.7.9.6.} [ +.9.' 8.$ , Z O.b.G.B.n.j.A.OX9X:X;X:X9XSXrX6XG.2.",
"K./.c...*.N.Y.W.T.9X0X0X_.J ; o ; q fXvXxX,XjXxXMXxXxXzXfXnXnXbXcXbXcXcXp.y.| ' R Q Q  .6.7.6.+.+.[ #.#.@.4 , % Z >.A.A.A.A.A.E.$XrXqX$X;XqXSXwX6X@X1.",
"T.3X~.%.%.k.L.I.(.(.@X+X2.F ; O . , $ c :.|.gXjXxXxXjX<X,X}.hXcXcXNXNXhX2X[.y.{ ' [ [ [ [ 5.+.} [ [ #.F @ 3 , $ v >.Z.E.A.A.E..X$XrX*XQ.$X9XiXqXeX4X2.",
"N.U.c.%.%.N.E.).(.K.U.Y.3.L 4 O $ * * $ > `.-XfXjXgXjXfX}.}.`.7XaXhX1Xs.aXaXp.} { { ' ' Q } @.~ ~ [ @.+ 9 > O $ z >.Z.m.V.V.Z.V.oXwXrX%X$X$X9XqXuX&XF.",
"g.j.f.$.>.D.OX(.W.Y.T.D.C M 4 ; # y c w # m |.-XfXjXgX,X'.@.A | | _ | | _ j N N S T U U U ! ~ W ~ ] @.+ . O ; : u ..-.g.C.A.b.=.Z.qXiXiX&X#X9XqXrX0X_.",
"z.C.j.o.1.T.XX(.K.N.Y.T.I F M , > 4 4 w & 3 }.|.}.fX<X|.7.Y q.[.s.>Xs.B j j j 3 2 = * k U W W Q Q [ ` .   X 4 # M >.=.*.w.V.m.n.A.qXiXiXeX#X$X=XrXyX4X",
"j.V.j.g.<./._.(.L.j.C.Y.~.>.a > O o * , * , J.{.{.|.|.'.t.'.xXlXaXaXaX>Xs.s.q.4._ n H K Q W ~ Q ] ` > . X X 1 ; F !.^.b.m.m.m.#X#X=X-XrXrX$X$X0X5X0X5X",
"f.C.j.j.<.U._.(.L.B.D.U.Y.l.o.F ; O + , w 4 2XJ.'.'.'.H.}.zXgXzXaXs.y.s.s.s.q._ N T S U Q W U U E  .  . + # > 4 F 3._.L.V.A.m.A.#X=X$XiXSXwXwXSXDXSX5X",
"/ f.j.f.f.g.F.D.K.D.U.K.U.K.X.L J P J w y 1 lXH.J.].`.`.|.,XgX<X].y.y.| { _ _ R T R R R U K U Q E 4 .   o . O ; b X.@X+X#X#X#XH.Q.&X=XrXFXSXFXDXGXSXqX",
"^ f.g.$.%.k.x.z.g.K.K.D.C.Y.T.I P v D M 4 x <X,Xe.H.`.|.'.,X,X|.s.y.| _ _ R R H T R n Y U U U U E #   .     O ; e 2.uXuXeXeX7X#XQ.Q.#X=X:XwXSXiXrXqX9X",
"^ $.$.k.x.c.c.z.N.K.T.L.z.K.U.c.) c q y a / <XxXJ.i.J.}.<X<X,X,X>X[.a.y. .' _ Q T R N m Y U U U 8.; .   . . $ > e ;.uXuXrX6X{.U.(.@X#X=X:X:XrXrX;X;X:X",
"$.g.$.c.^./.F.z.z.Y./.(.K.c.F.l...Z C ) >.R MXxX7Xi.H.}.<XjXjXxXaXNXCXaXa.9.} ! Q Q U R K U U ~ +.4 . . + $ $ 4 c o.4XuXeX@Xw.2.).0X8XeXeXiXSXSXSXSXiX",
"f.z.k.N._.W.K.z.x.F._.~.K.c.c.k.>.C o.2...J xXFXjX].w.H.2X|.jXnXNXNXcXaX{.a.5.5.[ Q Q K E K K ~ 5.b X o O X $ 6 c >.(.3X*XN.X.W *.Q.{.@X+X;XSXSXbXiXiX",
"C.K.z.g.D.Y.K.v.x.c.T.U.U.v.D.l.,...) %.X.R xXMXxX}.J.0.i.{.7XfXhXcXhX[.`.`.7.5.{ E U K K K W @.~ L O o # : > d i ;.F.@XT.<.X.%.F.M.K.XXXXW.;XrXqX$X5X",
"XX(.K.z.=.M.c.l.x.x.v.(.(.~.D.k.x.v.l.k.;.W MXMXnXjX{.H.8.u.].{.2X2Xa.p.p.9.#.} Q K G K S U Q [ +.+.: : > : s r q ..k.C.N.h.1.2.^.Y. XXX XC.I.*X5X+XR.",
"3X5X_.U.N.<.g.v.U.U.T./.5X@XU.F.v.U.U.k.>.@.MXBXnXjX|.{.H.:.:.0.y.y.:.| ` ' ` L G K m b U Q ~ ~ ~ #.$ 3 0 i s r 0 X.N.K.P.C.=.I *.L.j.Z.V.f.C.V.oXXXC.",
"XX@X_./.K.<.k.F.T.~./.(._.(.U.Y.U.c.U.D.1.w.MXMXBXbXjX7X}.J.:.o.] ] _ L J K J G G b m K T W Q ! ~ 6.; t s s s r r ..C.A.E.V.f./ f.L.Z.C.XX XP.V.C.j.E.",
"/._.3X_.U.l.k.x.x.T.(./.T.U.g.g.f.g.z.z.=.Q.MXMXnXMXjX7X7X2XJ.8.@.( G G G b b l x S S Q W Q ! ~ ~ 6.c 0 s s r r t ..C..X.XA.j.d.j.T.XXU. X X XC.V.C.P.",
"U.@X3X3X~.l.k.k.x.D.(././.c.f.$.$.f.z.j.$.H.nXMXMXMXnXhX7X2X{.u.y.:.] ` L G A G K Y T Q Q Q ~ [ ! #. .a s r r i 0 .. X.XV.f.f.j.N.C.T.XXc.C. XS.S.P.V.",
"^.^.^.3X~.z.x.x.l.D.D.U.P.z.j.g.&.&.N.j.j.H.nXMXnXjXnXbXfX7X{.J.u.0.0.:.] Q U U U U Q W Q ! Q ~ ~ +.+.@.!.i d r r ;. XP.f.d.f.I.@XL.P.^.^.T.@X$X.XV.I.",
"^.^.^.T.U.c.c.c.l.F.D.D.D.z.g.g.f.f.g.j.j.Q.xXmXnXnXnXjXhX7X{.].i.y.u.2.@. .E U U Q Q Q ~ ! ~ ~ ~ @.5.! [ @.z s d ;.Y.E.V.n.2.N.F.1.*.O.l.L.@X&X X XV.",
"^.U.P.c.T.U.P.j.g.D.Y.D.D.C.g.f.f.z.P.c.oXjXjXxXnXnXbXjXhX}.{.J.i.:.u.u.' ' E Q E Q Q Q Q Q Q ~ ~ ~ } Q E ~ b , 0 d P U.W.j.j.1.*.O.~ / 1.f.n.R. XW.C.",
"c.v.^.^./.3X+XU.D.L./.K.z.P.j.f.j.z.P @ '.xXgXxXMXnXnXhXfX2X}.].H.u.y.u. .R E E Q ' R Q [ [ [ ] [ } ~ E J R * O 9 + + : > u F.D.-.@.*.1.R.L.j.B.B.C.N.",
"^.^.U.^.^.^._.^.C.K.T./.~.c.j.f.j.%.f MXjXjXjXbXnXnXjXjXfX2X2X].].u.u.:.` R Q W Q Q Q ' Q ' [ [ [ ~ ! S #.J + + + + 9 + 8 + + d !.1.D.b./ ..I I I ..P "
};
