/* XPM */
static char *Screenshot_from_2024_05_19_14_37_021716130396[] = {
/* columns rows colors chars-per-pixel */
"64 64 235 2 ",
"   c black",
".  c #0D0D0A",
"X  c #0B0907",
"o  c #100F0C",
"O  c #12110D",
"+  c #1B170E",
"@  c #141411",
"#  c #191713",
"$  c #1C1914",
"%  c #1C1C1B",
"&  c #171618",
"*  c #0F100C",
"=  c #231D14",
"-  c #211E1A",
";  c #291F15",
":  c #1F201E",
">  c #262016",
",  c #2A2216",
"<  c #24221C",
"1  c #2B241B",
"2  c #2E291E",
"3  c #31261A",
"4  c #332A1C",
"5  c #3A2D1D",
"6  c #312515",
"7  c #3C311F",
"8  c #1C1A22",
"9  c #171721",
"0  c #231B23",
"q  c #2A1E25",
"w  c #242423",
"e  c #2A2621",
"r  c #2B2A24",
"t  c #2A2D29",
"y  c #272826",
"u  c #342C21",
"i  c #3A2E22",
"p  c #322926",
"a  c #2F312A",
"s  c #3C3224",
"d  c #35342B",
"f  c #3B352A",
"g  c #3D3B2C",
"h  c #353528",
"j  c #383835",
"k  c #322D33",
"l  c #1F2020",
"z  c #41311F",
"x  c #4C2E1F",
"c  c #433424",
"v  c #4B3A26",
"b  c #43352A",
"n  c #443B2B",
"m  c #4B3C2B",
"M  c #4B3426",
"N  c #523D2B",
"B  c #573628",
"V  c #493D33",
"C  c #4E362C",
"Z  c #613C37",
"A  c #3F4332",
"S  c #45442E",
"D  c #53422E",
"F  c #5A442E",
"G  c #444332",
"H  c #4C4233",
"J  c #494B35",
"K  c #4C4C3A",
"L  c #454838",
"P  c #544332",
"I  c #5A4533",
"U  c #5D4935",
"Y  c #534D3D",
"T  c #5B4A3A",
"R  c #554938",
"E  c #4D523C",
"W  c #4D5535",
"Q  c #52543B",
"!  c #545B3C",
"~  c #545738",
"^  c #624535",
"/  c #624B35",
"(  c #634D3A",
")  c #664B3A",
"_  c #64513C",
"`  c #6B543C",
"'  c #6F583E",
"]  c #71573F",
"[  c #58633D",
"{  c #3E3D45",
"}  c #433C42",
"|  c #4A4A47",
" . c #554C46",
".. c #4E5343",
"X. c #5A5445",
"o. c #555A43",
"O. c #5A5D43",
"+. c #575747",
"@. c #555453",
"#. c #6C5543",
"$. c #6D5943",
"%. c #665849",
"&. c #735B43",
"*. c #735C4A",
"=. c #775A45",
"-. c #675E50",
";. c #6F4F46",
":. c #5C6444",
">. c #5E6A42",
",. c #5D634A",
"<. c #5A6445",
"1. c #616545",
"2. c #626C45",
"3. c #61654C",
"4. c #646C4B",
"5. c #696D4D",
"6. c #6A6848",
"7. c #7C634C",
"8. c #786147",
"9. c #657146",
"0. c #66714B",
"q. c #6B744C",
"w. c #6D7A4D",
"e. c #6A7546",
"r. c #727B4E",
"t. c #74754D",
"y. c #656C53",
"u. c #6A6956",
"i. c #776955",
"p. c #6C7452",
"a. c #6E7A52",
"s. c #697453",
"d. c #717553",
"f. c #737C53",
"g. c #747C59",
"h. c #7A7A59",
"j. c #595866",
"k. c #797767",
"l. c #6D7270",
"z. c #5D6760",
"x. c #835E4A",
"c. c #82654C",
"v. c #86694D",
"b. c #846B52",
"n. c #896C53",
"m. c #866B57",
"M. c #8B7259",
"N. c #93745B",
"B. c #97785B",
"V. c #956853",
"C. c #A27B5D",
"Z. c #867B67",
"A. c #9B7C63",
"S. c #987C64",
"D. c #847D73",
"F. c #8F6C60",
"G. c #A57B65",
"H. c #B37D6E",
"J. c #75834D",
"K. c #758155",
"L. c #7A8355",
"P. c #76825B",
"I. c #7A845B",
"U. c #7D8A5C",
"Y. c #7C8A54",
"T. c #7D8A61",
"R. c #7C8466",
"E. c #798378",
"W. c #828B5C",
"Q. c #86875B",
"!. c #88945B",
"~. c #A6815E",
"^. c #838D63",
"/. c #888867",
"(. c #9B8366",
"). c #859266",
"_. c #8B956B",
"`. c #8B9667",
"'. c #919A69",
"]. c #8C8473",
"[. c #878073",
"{. c #928B76",
"}. c #8B9777",
"|. c #989B77",
" X c #A78569",
".X c #B38B6C",
"XX c #B18569",
"oX c #AC8D73",
"OX c #A98774",
"+X c #B58C74",
"@X c #AC9376",
"#X c #B39579",
"$X c #BC9C7C",
"%X c #B79577",
"&X c #9BA47A",
"*X c #96A26A",
"=X c #B1A17D",
"-X c #C29C7C",
";X c #C2977D",
":X c #C18A6C",
">X c #7E8985",
",X c #848886",
"<X c #8B9594",
"1X c #969A9A",
"2X c #8B928B",
"3X c #BD9D81",
"4X c #96A394",
"5X c #ABA897",
"6X c #B4A98B",
"7X c #9599A1",
"8X c #9CA7A7",
"9X c #A3ACAA",
"0X c #AAB6B6",
"qX c #B3BCBC",
"wX c #AAB0AD",
"eX c #C59F81",
"rX c #C4A384",
"tX c #CAA485",
"yX c #CDAB8B",
"uX c #C8A68B",
"iX c #D2AD8D",
"pX c #D2AE92",
"aX c #D5B293",
"sX c #D8B69A",
"dX c #CFAB91",
"fX c #C2BCAF",
"gX c #B2BFC2",
"hX c #BEC9CC",
"jX c #B8C4C6",
"kX c #C5CACB",
"lX c #C2CED1",
"zX c #C4D0D3",
"xX c #C8D4D7",
"cX c #D6D4D3",
"vX c #D1CFCE",
/* pixels */
"                                                                                                                                ",
"                                                                                                                                ",
"                                                                                                                                ",
"r.r.I.0.<.4.2.>.0.y.2.>.2.0.2.q.K.w.I.).).T.U.U.K.K.o.t t t y w w 1 r - % < - - - = - - - $ $ $ $ # # $ # @ + O O . O O @ @ $ 1 ",
"K.L.R.s.>.4.4.s.0.0.9.>.1.q.w.a.P.w.K.).).T.U.K.w.K.,.t t k a a e r t w < 1 w < < 1 < 1 1 < < < 1 < < < - % - # O X X X X X O 1 ",
"U.P.g.0.<.>.>.4.<.<.0.2.2.f.).U.P.I.T.).)._.).L.9.0.o.g d j j j a a p 1 1 1 1 e e r e e e e 1 1 e e 1 w e 1 < - # . . X . . @ > ",
"T.K.f.5.<.,.<.:.[ <.s.0.>.P.}.R.a.T.U.U.).&X&X'.e.:.K f d f p p h s n f h r 1 e 2 1 1 2 r r 2 r e 2 2 e e e e < $ O . X . . @ < ",
").h.p.1.! [ [ :.[ >.0.0.>.s.a.2.<.K.P.K.T.}.4X&XP.W h 1 1 2 , = u s r 1 s n G f G G G A A g h a r a r 2 r r e < $ O . X . . @ < ",
"'.Q.2.Q W ! ! ! [ <.>.4.>.>.4.<.Q 5.g.f.Q.^.`.I.[ h , = > < = , u < > , 1 u 4 s Q 5.p.g.L.P.g.6.W Q Q Q ! K g < $ @ * X . . @ 1 ",
"`.^.2.2.>.W J J E o.o.<.4.>.4.:.Q 1.p.f.h.f.Q g 4 , = = = = , 1 1 > > 2 , 2 u 4 4 H 6.r.U.'.'.Y.e.t.I.J.U.K.! t % @ . . . * # < ",
"r.h.K.^.a.K K K J ..! >.q.4.q.q.1.2.g.f.2.Q s 4 3 , 1 > = = 1 < < = 2 1 $ , u 3 i s n ~ e.`.^.t.t.J.Q.!.'.!.q.d w # * X . @ & 2 ",
"r.w.L.U.q.E K K o.3.,.s.y.4.p.p.6.2.f.:.g 1 1 4 4 6 , = = ; , , , , , 1 = = s 5 4 4 4 6 Q p.I.2.e.t.Y.!.!.*Xf.g w # * . . @ % r ",
"J.e.e.q.0.Q J K O.u.3.y.s.y.0.f.s.4.2.A 1 3 5 7 3 , , > ; , 4 3 , , 6 6 = = s n n 4 , > u J h.W.h.h.f.L.Q.W.e.h w # o . . @ w e ",
"Y.Y.r.w.q.O.K E ,.y.4.2.3.2.4.R.f.2.S > > 3 7 5 > > 4 6 6 z s 5 2 3 s 3 = > 4 c n s , u 2 2 p.`.'.`.h.h.h.t.W a w # o . . @ w r ",
"!.!.!.Q.0.Q K +.y.d.p.4.y.,.4./.g.Q 1 + , s m 5 , 6 5 5 D / / N 5 5 5 6 , 6 5 4 n H s u s 1 W ^.&X6X6XfXfX5Xu.t w & o . . @ < y ",
"J.!.!.Q.2.J E o.4.5.0.y.y.y.y.R.p.s 1 > 4 D D 4 4 4 c v F ' ] ` m v z 5 z 6 1 3 n I D 3 1 > 4 e.'.6XaXwX6X&Xy.t w & o . . @ < t ",
"J.!.!.`.t.O.O.! 3.1.1.O.3.y.y.g.n 1 < 1 I $.S c b C m v D F ^ N M v 5 v 5 6 3 5 m R _ m 4 , = J T.T./.R.Z.1.G t w $ O . . @ l t ",
"J.!.`.!.r.t.4.O.y.p.5.1.+.+.,.s.f < > m N.7._ D N I D c N v z c N N z 5 4 5 c c 5 m R 1 u < # f T.).2X5X5X{. .y w # * . . @ : r ",
"Y.Q.W.W.r.e.1.:.4.^.^.q.y.:.3.y.h > > n M.b.M.' #.7.*.R M c 5 N / F N z z v v M N ( P ; = = + 2 1.L.`.Q._.h.+.a w % * . . @ < r ",
"r.Y.Y.L.r.q.:.O.2.g.W.L.g.0.4.J > > $ s ' B..X Xi.S.S.M.i.*.*.;.] =.] F N N F ^ / ` #.P p ; 1 > ~ L.M.6.1.O.o.d w % * . . O : y ",
"e.f.L.L.f.q.O.! 4.q.r.W.W.K.f.G + + > I (. X$X$X X X@X@XS.S.A.S.B.N.m.=.) ] #.&.&.' F c u u 2 = H M.d.Q Y G g y w % O . . @ : y ",
"q.q.r.K.q.4.2.6.4.6.w.^.W.g.q.g $ > 1 U (..X$XtXrXrXrXuXdXeXeXeXrX$X+X XA.B.N.v.c.7.` i > > 4 1 S R.k.%.Y G h y w % O . . @ % y ",
"f.q.f.K.4.2.f.p.0.2.e.0.0.q.r.A = 1 7 8..X$X-XiXyXaXsXsXsXpXyXyXpXdXuX%XoX XB.b.7.8.7.( , > > 1 G Z./.s.X.L d y w : O . . @ : y ",
"f.f.L.f.6.q.I.T.f.t.e.e.2.1.q.n 1 4 ~ (.$X=X-XiXpXaXsXpXpXdXeX$XuXtX%XXXN.$.P H H D R #.I s > , J /.(.i.-.K d y w % O . . @ % y ",
"W.^.W.f.w.f.I.T.U.Y.J.9.2.5.! s 2 f T B.$XrX#X@X#XoX@X#X#X%X+X+X+XoXV.#.b 4 > < 1 u u b &._ 1 > H Z.].i.-.Y d w w : O * . O : w ",
"^.`.Q.f.w.K.U.U.U.Y.L.q.1.f.X.h g n R  X3XS.7.i.%.V V V #.m.N..XXXN.I i 1 3 u s i p 3 u _ 7.n 1 K Z./.i.-. .g w w : O X X @ : w ",
"r.W.^.f.e.r.T._.).Y.K.q.1.! S h H V 8.$X X#.T P f p b C V ) N.eX%Xv.D v m V R R P N m V I 7.$.3 T {./.h.-.X.n t w : * * . @ : w ",
"q.W.W.I.a.0.a.P.g.K.w.0.1.:.S s f L (.$XN.V  .-.*.*.;.X.*.7.OXpX-XV./ m C V  .V f b b P _ b.i.g 6.@X{.d.-.X.L t w : O * . O : w ",
"f.I.P.K.a.0.p.p.p.f.K.w.1.:.Q h p H @X$XM.8.i.m. . .b b  .m.3XaXtXC./ N c  .} 0 e u c N U b.b.H h.Z.S.h.3.X.G t w % @ o . @ % w ",
"p.a.a.a.q.2.w.p.0.s.K.r.5.4.4.J g K #X$X(.h.&. .V - = N ) G.tXaXtX X] / I %.;.V V P I ) 8.b.M.P %.^ ^ *.%.X.V y t - O o . @ % w ",
"a.K.K.a.p.6.q.a.q.q.f.f.f.g.g.4.O.X.#X$X#XA.7.*.i.-.*.m.A.$XuXiX-XC.c.c.v.v.m.m.c.c.c.n.B.Q.m.I ^ ) B ^ -...g t w % @ o . @ % w ",
"f.I.U.U.^.I.f.q.0.0.w.f.f.p.f.h.h.3.OXrXuXrX%XoXOXG.A.+XuXtXtXiX;XC.c.c.N.~.~.XX~.C. XB.A. XM.` ^ ) B ^ %.| f y w l @ o . @ % y ",
"q.e.t.W.'.'.).K.K.K.f.a.e.0.Q.+X-X#XoXrXyXiXyXyXyXtXiXaXiXtXeXiX;XC.c.c.V.~..X.XXXXXXXG.B.B.b./ ^ ` B ) %.K f y w 8 # . o @ % w ",
"p.r.q.r.).`.).`.`.).U.a.6.5.n.V.oXuX@X3XyXpXpXsXaXaXsXsXiXtXpXsX;X~.v.8.v.~.XX.X.X+XXX XM.M.b.U x ^ B ) X.Y L j w : @ . . @ & w ",
"f.L.L.w.f.L.W.'.*X}.).K.f.d.=.;.OX%X@X3XuXdXpXsXsXsXsXsXpXeXpXpX-XC.n.=.x.~..X.X+X.XXXB.b.7.b.$.M B ^ %.X.X.O.L t : @ O . @ % w ",
"f.f.L.r.w.f.U.U.`.`.).U.r.f.x.V.uX+XN.oX3XrXuXaXsXsXsXsXuXeX@XOXN.=.=.c.] B.~..X.X.XG.N.b.7.7.` B B ` %.X.X.y.E y : @ o . O % w ",
"P.w.w.K.f.K.I.Y.T.T.Y.K.q.r.v.XX3XV.x.G.#X3XdXpXsXsXsXaXtXoX7.F.' S F ' 8.V.~.~.XX~.B.n.7.8.7.` ^ ` 7.y.%.d.f.J y : @ O . O % < ",
"U.w.w.f.f.a.f.U.T.T.K.9.t.K.Q.;XH.V.C.OX@X3X6XaXsXsXsXyXtXn.^ i./ v 7 D / v.C.C.C.B.n.7.8.8.8.` ] ;.i.h.5.h.f.! t < @ o . O & < ",
"_.K.w.q.s.w.a.a.P.T.J.K.w.f.L.@XtX:X;XOX(.3X3XdXaXsXaXaXiXG.m.M.( D x x F v.C.C.B.n.7.&.$.6.&.U ] b.Q.Q.i.d.f.o.t % @ o . @ & w ",
"U.U.q.<.<.q.a.s.a.P.a.>.1.e.r.Q.tX;XeXG.(.3XuXyXpXaXaXaXeXB.=.&.X.V 6 6 v ' v.V.n.n.&.` _ ' $.D ` v./.Q.d.h.h...t : @ o o @ & < ",
"U.U.a.>.<.q.d.y.4.<.o.+.o.2.p.p.@X;XuX Xm.3XrXyXiXyXrX%Xv.F D N ) #.i , 3 z Z _ ` ' ' / U _ _ D i././.g.f.W.a.J e l @ O * O % : ",
"U.T.U.s.4.q.p.p.<.E E +.,.,.4.p.Z.uXpX(.8.#X$XrX$X~.M.8.F D N Z =.=.N c i 4 4 7 x D / U F D D ~ Q.*X`.d.f.L.f.Q y l @ O * * % : ",
"a.R.I.s.p.p.4.p.,.o...+.3.,.>.p.d.S.oX7.' (.@X%XN.' / U F U ) ;.7.*.Z N M z 5 1 7 z D D S v D R /.&X|._./.!.W.>.t w @ * * O # w ",
"s.g.g.y.y.p.f.f.0.o...,.3.+.,.p.g.d.4.R ~ b.n.(.` N v H D ^ ;. .;.Z B M z i 3 3 5 7 v z z 7 v Y ^.=X6X|.|.&X`.<.a : @ O * * # : ",
"s.P.a.,.2.f.g.d.u.+...+.,.<.3.p.f.h.q.P P ` ` v.U m R *.F.G.H.G.H.H.F.;.^ ^ R N S z v 5 5 4 c Y Q.|.|.|.|.&X`.:.t l @ O * O # l ",
"s.P.R.s.p.h.g.g.s.,.+.,.y.,.3.p.d.f.2.K S D I 8.#.7.S.+X3X3XOXOXG.F.x.=.;.) ^ I D v s 3 6 3 5 W L.^.^./.`._.).[ t w @ O . * & : ",
"p.g.P.a.g.W._._.g.,.,.y.y.y.1.4.5.q.6.E S v D _ ] B.3XeXOXS.M.b.*.;.X.( / U U P v v 4 , , , 4 W t.L.g.f.K.P.I.<.t : @ @ * O $ : ",
"s.a.a.e.K.'.&X'.g.o.o.,.s.y.4.p.d.q.1.~ n n 7 H #.m.@X%XS.x.' ( Z b N I P I N m z c 1 , , , 7 W 9.K.U.K.q.K.Y.[ a : $ @ O O & : ",
">.9.9.>.J.U.T.Y.>.A A 9.P.<.0.P.^.T.y.O.n i i n ( 8.A.S.v.c.' U P P P I D D v M 7 5 6 ; ; 1 v 2.J.J.I.e.9.J.K.>.L A j a d j j A ",
"[ 9.9.>.>.K.Y.J.[ A A >.K.s.s.P.T.^.f.1.G u i z P $.N.A.B.N.v.' *.#.` _ R v n 5 4 5 , + ; u :.J.J.J.J.>.[ >.w.0.>X<X2X>X>X,X>X>X",
"[ >.w.9.0.J.w.9.[ A W 9.K.s.s.s.g.R.f.3.R f 4 i n _ 7.n.n.m.m.7.*.#.$.I m s 5 4 6 6 ; = > s d.W.J.J.9.<.A S W <.E.8X8X8X8X8X8X9X",
"9.w.w.9.9.J.w.>.W A A >.0.s.P.P.I.R.g.q.O.Y n b i v _ 7.&.*.%.) U U ^ c 4 6 6 6 , 6 ; > 1 R h.U.Y.J.>.J h u A o.l.<X1X8XwXwXwX0X",
"9.J.w.e.e.T.2X}.R.l.g.T.R.T.E.}.}.}.}.).k.F.} z 3 5 m D P P P n n b s 3 ; , , ; , 1 ; 6 s X./.0.9.<.W A d d A ..z.l.>X<X8X8X0X0X",
">.w.r.e.e.4XjXhXjXjXjXgXjX0XqXgX0XqX0XwXwXwXD.Z 4 3 5 4 i u i u 4 3 u 4 ; ; ; = > = , g #.k.].d a y 2 : 2 < w w a j { L | ..@.@.",
"9.q.w.2.[ ,XjXhXhXxXzXhXxXhXhXzXhXhXkXhXkXjX2X} s 4 4 3 u u < 1 1 1 i u - = - ; = - u X.k.D.].- : : @ & & & & 9 9 & & & & % & & ",
"<.2.2.>.<.E.9XjXhXhXzXzXzXzXzXzXlXhXkXkXjXkX8X-.p 5 s s 1 , = = e , u 2 - = = ; = e K k.Z.].{.f : < l 9 9 9 9 9 8 8 8 0 8 9 9 8 ",
"[ [ ! [ <.E.4X0XjXhXhXhXxXzXzXhXhXhXzXlXl.7XvXl.b 1 3 q - = = - - = 1 - = = # e e | u.Z.Z.D.{.-.- r w 8 9 9 9 8 l 0 0 0 0 0 0 0 ",
"[ [ W W o.E.<X8X0XjXjXhXhXzXhX0X0XhXxX8X{ 7XcXfX,X} i p 1 - - - - = ; - - # = - k -.Z.D.D.{.{.@.- < r 0 9 9 8 8 8 0 8 0 0 0 q q ",
"W W W W E l.>X7X8X0XjXjXhXhX0Xz.>XhXjXl.y 1XcXvXjX1Xl.@.f ; - - - - - 1 1 - ; e L u.Z.D.].].].K # % < r 8 9 8 9 l k { { k q q C ",
"d d A a a ..E.1X8X9X0XgXgXhX0X| E.jX7Xk y ,XcXcXvXkX0X7Xl.@.y 0 - w - 1 d j d  .i.k.D.D.D.].D.p # # % y y 8 8 8 { @.| j.k q b  .",
"& % % & @ : +.<X7X8X0XqXgXjXjX>X8XqX| y y D.vXcXvXvXjXqX9X7Xl.@.| @.|  .@.u.i.k.D.D.D.D.].[.u.% # # % e y w 8 8 } j.j.j.k q b I ",
"                                                                                                                                ",
"                                                                                                                                ",
"                                                                                                                                "
};
